<svg xmlns="http://www.w3.org/2000/svg" width="582.7232" height="297.5395" viewBox="0 0 582.7232 297.5395"><defs><style>.a{fill:#f8b576;}.b{fill:none;stroke:#000;stroke-miterlimit:10;}.c{fill:#007ec1;}.d{fill:#f67e7c;}.e{fill:#93d0c6;}.f{fill:#c2e5df;}</style></defs><path class="a" d="M356.0652,66.335C355.4594,26.087,381.56,5.83,415.3568,7.0435,448.0814,8.2189,474.6662,40.89,474.6483,66.335c-.0231,32.7458-26.8621,61.0387-73.61,60.26C368.2972,126.0489,356.5581,99.0771,356.0652,66.335Z"/><path d="M275.786,133.6463c.0441,4.9816-.3161,11.6675-.3742,16.6484-.1006,9.1067.0008,18.2148-.1079,27.3216-.149,14.8824-.829,29.7653-.4812,44.65a.48.48,0,0,0,.1247.3193c-3.0315.628-6.0434,1.3464-9.02,2.201-11.4731,3.4565-22.7652,7.4925-34.2974,10.7641-1.5638.4372-3.1362.8454-4.7028,1.2735l-.98.2653q-7.452,2.0271-14.9445,3.91c-.0461-1.1417-.1175-3.3113-.1474-4.3171-.1263-4.1227-.1275-8.2478-.0868-12.3719.4723-21.1018.3632-42.2083.6811-63.3116.184-10.4168.5407-20.8292.8955-31.2415.8932-.0965,1.7849-.21,2.6947-.2939.5216-.0261,1.0627-.117,1.576-.1737.2319-.0187.59-.1.8228-.1137.4391-.11.7881-.169.9754-.2245a10.689,10.689,0,0,0,1.161-.4457.2785.2785,0,0,0,.0289-.0145c1.4938-.846,2.5261-2.5451,3.6787-3.8917.3181-.3293.8594-.9981,1.0445-1.2112q.62-.7131,1.2448-1.4213,1.202-1.3614,2.4229-2.7058,2.44-2.689,4.9381-5.3246c3.3265-3.521,6.72-6.9771,10.0726-10.4726,1.3761-1.4346,2.7691-2.8532,4.1563-4.2773,10.2525,10.52,18.2424,24.579,28.7631,34.83.2649.2581.6406.3852.7635.0364.0658-.1869-.6339-1.1937-.7659-1.3414a298.2733,298.2733,0,0,1-20.66-25.8663l11.116,1.0123a8.749,8.749,0,0,1,4.7779,1.3979,8.3515,8.3515,0,0,1,2.1846,3.476c1.0057,2.4006,1.3683,2.9285,2.5139,12.6754.05.4282.3986,9.9446.6112,10.1711s.6792.2117.76-.0882a.6523.6523,0,0,0,.0126-.1949c-.176-4.8141-.8436-18.0417-3.011-22.9083-.7851-1.7628-1.2633-3.2161-2.57-3.9527a13.95,13.95,0,0,0-5.81-1.6384l-9.1715-.7237a5.1011,5.1011,0,0,1-2.4134-.6,5.4511,5.4511,0,0,1-1.3012-1.3914,37.8533,37.8533,0,0,0-4.1289-4.6447,13.7607,13.7607,0,0,0-1.2881-1.0935.55.55,0,0,0-.7314-.1361,1.6969,1.6969,0,0,0-.2454.2376c-.0008-.0073.01-.0222-.2076.2082-.4023.4267-.8479.7945-1.2539,1.219l-2.6036,2.7216-5.207,5.4432-10.4142,10.8865c-2.5412,2.6564-4.5893,5.8165-7.2666,8.3555-.5038.388-.8609.6921-3.1994,1.0308-1.3482.12-2.6911.3-4.037.4443.3794-11.1449.7507-22.29.9007-33.4406.0529-5.1747.117-10.3525-.0689-15.5253-.1475-1.1632-.1172-3.0414-.353-4.778a2.1,2.1,0,0,1,.376.11c2.2207.6215,4.5311.9037,6.7281,1.604.13.061.1037.0466.08.0346.0468.02.092.0436.1376.0663.0793.04.1563.0846.2314.1321.0376.0256.0638.043.0912.0626a11.2628,11.2628,0,0,1,.2207,2.0584c.256,4.4263-.1079,8.8954.5456,13.2936a14.3956,14.3956,0,0,0,.6134,2.495,2.0056,2.0056,0,0,0,.7816,1.1581c1.3592.3451,2.8382.0455,4.2378.1375,4.2711.01,8.5459.0682,12.808.3621a35.7157,35.7157,0,0,1,6.492.914c.65.04.42,1.1394.5665.9489-.0547-.1151.7725.2256.8257-.0927a3.04,3.04,0,0,0-.1437-.9708,1.1926,1.1926,0,0,0-.91-.8652c-7.3827-1.523-15.6161-1.1755-23.0808-1.289a2.8858,2.8858,0,0,1-.3071-.022,4.8192,4.8192,0,0,1-.6731-1.8019c-.9813-4.4627-.44-9.7392-.7786-14.6666a5.9236,5.9236,0,0,0-.3845-2.2441,2.8636,2.8636,0,0,0-1.2537-.7362c-2.4376-.7-4.9608-1.0662-7.4-1.7673-.4041-1.7879-1.2345-3.1934-3.0827-3.09-3.9023-.0522-7.8025.2216-11.6913.5182-4.7374.3471-9.72,1.3919-13.5739,4.3111-1.5907,1.0445-1.4828,2.804-1.45,4.49-.0175,3.2535.069,6.5069.1914,9.758.0718,1.8174.1735,3.6333.28,5.4491-.7476-.0686-2.4014,1.0757-2.8979,1.1875-6.2624,3.0466-12.577,6.0521-18.2719,10.0963a98.4746,98.4746,0,0,0-9.2022,7.1976,76.1137,76.1137,0,0,0-10.4975,10.4542,43.42,43.42,0,0,0-5.5728,7.563c-.2061.485-.5559.9608-.7422,1.4639-.1467-.0141.0122-.038-.0923.0707a36.1256,36.1256,0,0,0-.9492,4.5791c-1.7073,15.2892-3.1037,30.6258-3.9778,45.9859-.61,13.0493-.518,26.1187-.4869,39.1786.0635,10.4226.5164,20.8436,1.4554,31.2249a34.1082,34.1082,0,0,0,.4865,3.5744.5.5,0,0,0,.9643-.2659c-1.8281-14.0594-1.9166-29.5537-1.9278-44.1943-.3378-25.7622,1.7142-51.4675,4.666-77.0429a7.0667,7.0667,0,0,1,.1335-1.1357c8.6249-2.0091,17.2785-4.0442,26.0065-5.5759,5.674-.9581,12.2962-1.0185,18.4469-1.4985.0142-.0069.02-.0154.033-.0225-.0848,1.2-.1685,2.4006-.2423,3.6018-1.0811,15.2313-1.6431,30.4964-2.0165,45.76-.5462,22.9255-1.9269,45.8494-1.4387,68.7877.1018.8142-.0105,1.704.152,2.5016-13.5012,2.804-27.1875,4.7333-40.4969,8.4142-13.3628,3.5943-26.2944,8.6105-39.3376,13.196-2.6607.9749-50.5261,18.4035-53.2258,19.2218a.5015.5015,0,0,0,.4359.8749c14.6239-4.788,74.1092-27.0849,88.9018-31.3833,12.8451-3.7172,26.04-5.8992,39.158-8.3832,19.584-3.9464,39.008-8.7411,58.2671-14.0418,12.4391-3.484,24.5738-7.9483,36.98-11.5274,23.012-5.9444,46.71-6.4073,70.5652-6.3231,1.7885.0121,3.5772.0127,5.3657.0116-.0072-.007.562-.0077.5575.0012,15.4008-.019,30.8039-.4357,46.2012-.01q21.1817.9231,42.3713,1.6553c8.2511.3271,16.8052.6029,25.0617,1.3346.0165-.0756-.004.0005.0031.004a7.0065,7.0065,0,0,1,.9316.1374l.0181-.0246c3.5516.3308,7.0526.7362,10.443,1.2746a74.9566,74.9566,0,0,1,14.8042,3.4767c7.341,2.8367,14.7823,7.0745,22.0963,10.8862,6.9413,3.7868,14.1212,7.2155,20.5966,11.7846,6.8729,4.9515,13.1735,9.8517,19.7037,14.9925q3.1006,2.4519,6.1663,4.9476a.4861.4861,0,0,0,.5462.1034.4981.4981,0,0,0,.2895-.59c-.1863-.4261-.74-.6459-1.0574-.9766q-6.0454-4.902-12.2171-9.6454c-5.2588-4.0032-10.4456-8.1259-15.9744-11.7551-5.5129-3.4485-11.3339-6.3694-17.05-9.46-8.2332-4.2395-16.2693-9.0567-25.08-12.02a121.32,121.32,0,0,0-23.28-4.0144c-.1028-7.04-.1488-14.0994-.4675-21.1236a4.4117,4.4117,0,0,0-2.2912-2.4727c-1.213-.7956-4.49-2.0372-5.0627-2.3811-.0189-.0294-.0169.0057-.02-.0292-.2862-3.3771-.8748-7.3829-.8843-11.1534l-.0085-3.37-.0043-1.7179c-.0009-.3886.123-1.0476-.1313-1.3781a.9414.9414,0,0,0-.4689-.2809,38.7109,38.7109,0,0,0-4.725-1.18,14.1133,14.1133,0,0,1-4.6118-1.3281,30.7478,30.7478,0,0,1-5.6314-4.8989q-4.6441-4.6807-9.1994-9.4485c-.6072-.5482-1.2958-1.3617-1.9913-2.1249-.3349-.5052-.3069-.7968-.6193-1.0268a6.2143,6.2143,0,0,0-.8335-.08c-.3053-.0236-.4011-.0345-.4708-.0387-.0943-.0222-.4932-.0856-.5493-.0987a111.6562,111.6562,0,0,0-11.8931-.5232,37.5964,37.5964,0,0,0-5.0193.08,15.7172,15.7172,0,0,0-4.7227,1.8566q-.7194.456-1.4264.9336c-.4687-.3795-1.4033-.6963-1.7146-.9247-6.7172-3.4158-13.4264-6.932-20.5088-9.5391a3.036,3.036,0,0,0-1.9581-.2156.7868.7868,0,0,1-.3235.115,2.6084,2.6084,0,0,1-.3268.0418c-3.8942.4087-7.9278.2659-11.7937.6866a3.3147,3.3147,0,0,0-.458.04c-1.4468.1023-2.5053.1057-3.8855.3206-.0932-2.5454-.49-5.2382-2.5468-6.8077a1.98,1.98,0,0,0-.77-.2343c.0247.0184-.777-.1214-.9649-.1154-7.506-.5572-14.6329-.9175-21.6784-2.2223-.5424-.0387-1.11-.3113-1.6508-.3148-.3679-.3364-.7279-.6817-1.1016-1.0117-4.6863-4.0374-9.2483-8.2346-14.2241-11.9191a27.2841,27.2841,0,0,0-3.3243-2.2015c-.4291-.1553-.6067.0275-.7815.0027-10.6538.5166-21.2942,1.3056-31.929,2.1214-.99.0142-1.2812-.2813-1.8374.1091-.0014.1214-.043.9556.3944.942,11.1751-.7452,22.9113-1.6424,33.6127-2.2268-4.8667,3.5865-8.8862,8.143-12.92,12.6134-2.36,2.6533-4.7569,5.2728-7.2525,7.7995-.46.6047-2.1445,1.72-2.3537,2.3971-.0107.4263.3432.7254.6407.4082,6.1275-5.9339,12.2665-13.3165,18.4941-19.1478,1.55-1.4541,2.883-2.4125,4.4037-3.6094,4.6017,3.0845,10.4264,8.2125,15.2449,12.4387,2.8573,2.4551,5.5528,5.0908,8.2384,7.7305.1817.1837.517.42.498.4225,1.8265,2.701,4.4783,4.8761,6.8978,7.0293a21.4132,21.4132,0,0,0,4.0268.7183c3.4282.5145,7.53.5064,10.1172,1.3672,3.4848,2.8914,3.2933,8.9992,3.4493,14.1236.3458,9.7327.14,19.478-.4337,29.1981-.2262,4.2579-.5219,8.5119-.8325,12.7644-.0889,1.18-.1767,4.7193-.2619,5.9a.5.5,0,0,0,.1464.3536c1.1636.69.8382-1.3275.9708-1.9588.1264-1.6928.2534-5.7439.3707-7.4373.5469-7.9819,1.0388-15.9724,1.1625-23.9736.1134-5.8042.01-11.6086-.2047-17.4092-.0736-3.51-.2893-7.2184-2.118-10.2662.0568-.0463.23-.0865.3106-.137,4.9424-2.3427,11.4285-5.8336,15.4728-7.7508,4.9921,1.2612,10.5928,4.3905,15.8742,6.8637,2.3584,1.0433,4.6162,2.522,6.9716,3.51a48.397,48.397,0,0,0-9.0349,8.4237l-2.9525,4.2011c-6.9583-.2265-16.8741-.7026-24.4953-.0709a.51.51,0,0,0-.0538.8976l2.8611-.0068.0609-.0045c10.3209-.662,21.3183.251,30.9865-.0464.425-.0131.85-.0139,1.2753-.0214q.4137.0131.821-.0137,3.7345-.0669,7.469-.125c5.056,5.0461,9.4718,10.6912,14.1753,16.0605,1.297,1.54,2.5826,3.0908,3.8378,4.6657a.8643.8643,0,0,0,.6545.3567c8.788.3862,17.5325,1.5817,26.3343,1.7549a12.8992,12.8992,0,0,1,2.0555.05c1.4.87,3.1334,1.3528,4.4314,2.2182,1.1768.7464,1.8834,1.1235,2.0637,2.16.1469,5.0076.2286,11.5172.37,17.0344.09.96-.0181,2.3615.0045,3.5557q-1.7171-.159-3.4312-.3074c-22.7626-1.2949-45.5641-1.907-68.3443-2.8168-13.8452-.2188-27.69.11-41.5361.1128a5.4039,5.4039,0,0,1-.0173-.9369c.0558-6.4877.2277-12.973.4318-19.4575.0339-3.2148.199-6.5417-.8232-9.6344a5.29,5.29,0,0,0-1.2071-1.9859,1.12,1.12,0,0,0-.1193-.317c-1.2-.39-2.6249-.1479-3.8985-.3315-7.0479-.4951-14.077-1.237-21.0862-2.1211-1.2915-.23-3.1016-.1941-3.6382-.9284-9.0347-11.5118-17.7733-22.48-26.5408-34.0442-.5418-.7193-8.1176-10.8264-11.0451-13.1793a3.1173,3.1173,0,0,0-.1886-1.1177Zm93.5193,17.2345c-3.265,1.6564-6.525,3.3238-9.8142,4.9319-.4069.2718-.9241.4838-1.2857.7833-.1894-.2654-.3883-.5265-.6083-.7779-1.21-1.3752-3.2466-1.1143-4.896-1.4347-3.2492-.36-7.8843-.7917-9.923-1.2243a52.4037,52.4037,0,0,1-5.7307-5.6926c-.372-.3836-.7637-.9265-1.0271-1.2513l-2.2479-2.1123q-1.4416-1.389-2.8946-2.767a117.0788,117.0788,0,0,0,13.7988,1.5485q4.0722.282,8.1453.5482c.0044,0,.0091.0009.0134.0009,0-.0035.5708.0347.7848.0535.1286.0112.3573.09.7605.5892,1.3654,1.446,1.69,3.7982,1.7565,6.1717.1341,1.2855-.4068,4.2-.03,5.2725,1.3549.8282.8986-2.9069,1.0394-3.5868-.0049-.3807-.0075-.7752-.0133-1.1779a31.588,31.588,0,0,1,3.5462-.37l.0068.002c.2084-.0112.417-.02.6255-.03.0119-.0021.0264.0008.0378-.0019,3.32-.1721,6.6429-.3,9.9606-.5109C370.6409,150.1883,369.9735,150.5357,369.3053,150.8808Zm26.7669,21.2833c-.16.0029-.32.005-.48.008-.7354-.03-3.0072.1109-3.2175.0857-.0331-.004-5.1793.1883-6.0269.1412l3.0119-4.2378a44.9254,44.9254,0,0,1,7.95-7.1747,18.0352,18.0352,0,0,1,7.09-3.5589c4.1938-.22,9.7991.0013,14.4911.21.7461.0446,1.3826.1281,2.02.2243a54.8529,54.8529,0,0,0-9.4894,6.761c-2.6588,2.1954-5.3,4.4124-7.8906,6.6885-.0574.0578-.566.5759-.6327.63Zm8.4837-.1091a2.2008,2.2008,0,0,0-.1806-.1423c5.5853-4.7274,10.6477-9.5847,16.8763-13.1441.4886-.3216.7406-.3161,1.0528-.5233a1.59,1.59,0,0,1,.1074.1239c2.85,2.8449,5.5544,5.8308,8.345,8.7333,1.3975,1.4536,2.8165,2.8874,4.2845,4.27a23.0713,23.0713,0,0,0,5.6206,4.4119,25.1708,25.1708,0,0,0,6.1293,1.4722c.5213.0993,1.0409.21,1.5541.3454a5.2662,5.2662,0,0,1,1.202.4651,17.28,17.28,0,0,1-.0767,1.8441c-.0535,1.1667-.0765,2.3353-.0925,3.503q-.0122.8842-.01,1.7684c.073,3.2472.4548,6.7181.7118,9.8019-1.08-.0371-1.3531-.0429-2.429-.1187-7.8573-.2416-15.6664-1.27-23.5141-1.6434a9.5724,9.5724,0,0,1-1.2094-.0757c-.0536-.0668-.1068-.1339-.16-.2008-5.4862-6.62-10.9764-13.27-16.8531-19.5457a4.3313,4.3313,0,0,1-.48-.4689ZM180.6441,127.2616c-5.9.4257-11.8358.4829-17.6927,1.3864-7.7942,1.2153-15.4513,3.1787-23.16,4.8308-.9837.2375-1.9864.4041-2.9648.6626a.3652.3652,0,0,0,.1128-.1127c1.6695-3.7309,3.9456-6.3588,6.5474-9.3785a73.1872,73.1872,0,0,1,8.1869-8.3994,113.0688,113.0688,0,0,1,15.0911-11.4363c4.4321-2.7287,9.182-4.9132,13.8364-7.2321q1.356-.6488,2.7259-1.268c-.5221,10.35-1.6057,20.6636-2.3566,31A.3356.3356,0,0,0,180.6441,127.2616Zm-2.4709,117.867c-.2975-18.1551.4817-36.3052,1.094-54.4463.5041-16.8493.8514-33.7059,1.85-50.536.7149-11.6184,1.6455-23.2223,2.6374-34.82.1148-1.5452.2527-3.0986.3622-4.6517.0073-.0366.2193-3.9092.22-4.2274-.339-5.8983-.4318-8.0551-.4684-13.9651.1048-2.034-.3546-4.7851.52-5.5145,4.7713-4.3068,12.2161-4.5916,18.9613-4.9761,2.4649-.0594,6.8742-.5083,7.5335.2216a6.3816,6.3816,0,0,1,.6936,1.63c-.0366.0273.0179-.02-.0135.0241.0934-.0819.2027.915.2157.8583.2326,1.2775.2655,2.6672.3806,4.1137.1962,3.6176.1735,7.2431.1693,10.865-.1211,23.01-1.3857,45.9954-1.8324,68.9994-.4409,18.9012-.0923,37.81-.6074,56.71-.1081,6.3734-.21,12.7493-.087,19.1231.0692,1.7942.0767,4.853.24,6.7032q-15.8063,3.99-31.7442,7.4143C178.3242,247.4936,178.1445,246.2957,178.1732,245.1286Zm165.9432-45.0321q-.3111,8.8964-.3615,17.7995c0,.0045,0,.0093,0,.0137-.7472-.0007-1.4944.002-2.2416-.0009-17.7848-.0319-35.6484-.0439-53.296,2.4333-4.1632.5794-8.2637,1.2215-12.3874,2.0518.2457-.5713-.1531-1.6223-.0521-2.1034-.1478-22.7607.8371-45.5134.6093-68.2776.0251-4.9257.3429-9.8434.4174-14.7678a8.3238,8.3238,0,0,1-.0053-.8705c5.8091,5.8133,10.06,12.3686,15.2429,18.8405,4.6074,6.0717,9.35,12.0373,14.0632,18.0261,2.8168,3.3155,5.232,7.1147,8.2437,10.1966,2.6392.7923,5.461.8088,8.1765,1.2311,6.143.7165,12.3047,1.3265,18.48,1.6852.3364.0017.84.0722,1.2774.0766a6.0152,6.0152,0,0,1,1.6115,3.6465A57.3729,57.3729,0,0,1,344.1164,200.0965Z"/><path class="b" d="M316.0662,218.6726v-27.007a1.1956,1.1956,0,0,1,1.1956-1.1956H330.747a1.1956,1.1956,0,0,1,1.1956,1.1956v26.7649S316.6623,218.6726,316.0662,218.6726Z"/><path class="b" d="M294.9225,210.5613l.2052-18.4158a.86.86,0,0,1,.87-.8506l9.702.1081a.86.86,0,0,1,.8506.87l-.2036,18.27a1,1,0,0,1-.9949.99c-2.149.01-7.2436.0332-9.4289.04A.9977.9977,0,0,1,294.9225,210.5613Z"/><path class="b" d="M317.87,177.0142l.1514-13.5876a.6348.6348,0,0,1,.6418-.6276l7.1584.08a.6348.6348,0,0,1,.6276.6418l-.15,13.48a.7378.7378,0,0,1-.7341.7308c-1.5855.0074-5.3445.0245-6.9569.03A.7363.7363,0,0,1,317.87,177.0142Z"/><path class="b" d="M334.4988,177.0142l.1514-13.5876a.6347.6347,0,0,1,.6417-.6276l7.1585.08a.6348.6348,0,0,1,.6276.6418l-.15,13.48a.7378.7378,0,0,1-.7342.7308c-1.5855.0074-5.3444.0245-6.9568.03A.7362.7362,0,0,1,334.4988,177.0142Z"/><path class="b" d="M441.1,220.228V202.1748a.7992.7992,0,0,1,.7992-.7992h9.0143a.7992.7992,0,0,1,.7992.7992l-.1436,18.6566S441.4985,220.228,441.1,220.228Z"/><path class="b" d="M369.849,217.6924V199.6392a.7992.7992,0,0,1,.7992-.7992h9.0143a.7992.7992,0,0,1,.7992.7992l-.1436,18.6566S370.2475,217.6924,369.849,217.6924Z"/><path class="b" d="M428.21,212.16v-10.13a.465.465,0,0,1,.465-.465h5.245a.465.465,0,0,1,.465.465l-.08,10.4424a.39.39,0,0,1-.413.3885c-1.1226-.067-4.2344-.2521-5.314-.3094A.3889.3889,0,0,1,428.21,212.16Z"/><path class="b" d="M412.6258,211.25V201.99a.4251.4251,0,0,1,.4251-.4251h4.7949a.4252.4252,0,0,1,.4252.4251l-.0735,9.5463a.3567.3567,0,0,1-.3777.3551c-1.0261-.0612-3.871-.23-4.8579-.2829A.3555.3555,0,0,1,412.6258,211.25Z"/><path class="b" d="M424.8575,189.45v-9.2608a.4252.4252,0,0,1,.4251-.4252h4.7949a.4252.4252,0,0,1,.4251.4252l-.0734,9.5463a.3568.3568,0,0,1-.3777.3551c-1.0262-.0612-3.871-.23-4.8579-.2829A.3554.3554,0,0,1,424.8575,189.45Z"/><path class="b" d="M437.2045,189.8709V180.61a.4251.4251,0,0,1,.4251-.4251h4.7949a.4251.4251,0,0,1,.4251.4251l-.0735,9.5463a.3566.3566,0,0,1-.3776.3551c-1.0262-.0612-3.871-.23-4.858-.2829A.3554.3554,0,0,1,437.2045,189.8709Z"/><path class="b" d="M386.7115,212.16v-10.13a.465.465,0,0,1,.4651-.465h5.2449a.465.465,0,0,1,.4651.465l-.08,10.4424a.39.39,0,0,1-.4131.3885c-1.1225-.067-4.2344-.2521-5.314-.3094A.3889.3889,0,0,1,386.7115,212.16Z"/><path class="b" d="M386.7115,189.5849v-10.13a.4651.4651,0,0,1,.4651-.4651h5.2449a.4651.4651,0,0,1,.4651.4651l-.08,10.4424a.39.39,0,0,1-.4131.3885c-1.1225-.067-4.2344-.2521-5.314-.3095A.3888.3888,0,0,1,386.7115,189.5849Z"/><path class="b" d="M371.6115,190.316V179.4693a.4979.4979,0,0,1,.4979-.4979h5.616a.4979.4979,0,0,1,.4979.4979l-.0861,11.181a.4178.4178,0,0,1-.4423.416c-1.2019-.0718-4.5339-.27-5.69-.3313A.4164.4164,0,0,1,371.6115,190.316Z"/><line class="b" x1="404.1569" y1="173.0656" x2="402.7463" y2="218.554"/><path class="a" d="M275.7884,133.8775c.03,4.95-.32,11.52-.38,16.42-.1,9.1,0,18.21-.1,27.32-.15,14.88-.83,29.76-.49,44.65a.4816.4816,0,0,0,.13.32c-3.03.63-6.04,1.34-9.02,2.2-11.47,3.46-22.77,7.49-34.3,10.76-1.56.44-3.13.85-4.7,1.28l-.98.26q-7.455,2.025-14.95,3.91c-.04-1.14-.11-3.31-.14-4.31-.13-4.13-.13-8.25-.09-12.38.47-21.1.36-42.21.68-63.31.19-10.42.54-20.83.9-31.24.89-.1,1.78-.21,2.69-.29.52-.03,1.06-.12,1.58-.18.23-.02.59-.1.82-.11.44-.11.79-.17.98-.23a9.9843,9.9843,0,0,0,1.16-.44c.01-.01.02-.01.03-.02,1.49-.84,2.52-2.54,3.67-3.89.32-.33.86-1,1.05-1.21.41-.47.83-.95,1.24-1.42.81-.91,1.61-1.81,2.43-2.71q2.43-2.685,4.94-5.32c3.32-3.52,6.71-6.98,10.07-10.47,1.37-1.44,2.77-2.86,4.15-4.28C257.3684,109.6575,265.3384,123.6375,275.7884,133.8775Z"/><path class="c" d="M344.1184,200.0975q-.315,8.895-.36,17.8v.01h-2.24c-17.79-.03-35.65-.04-53.3,2.43-4.16.58-8.32,1.25-12.45,2.08.22-.56-.09-1.65.01-2.13-.15-22.76.84-45.51.61-68.27.02-4.93.2662-9.8612.3463-14.7811.0006-1.06-.0661-2.0233-.0639-2.2662,4.9737,5.9122,10.1876,13.7773,15.3676,20.2473,4.61,6.07,9.35,12.03,14.07,18.02,2.7428,3.2406,5.114,6.9385,8.025,9.9778a1.1311,1.1311,0,0,0,.5131.308c2.5535.7063,5.264.74,7.8819,1.1442,6.14.72,12.3,1.33,18.48,1.69.2313,0,.5509.0348.87.055.4328.0274.4062-.1417.8173.25,1.043.9931.9177,1.9525,1.2031,3.4153A57.6784,57.6784,0,0,1,344.1184,200.0975Z"/><path class="a" d="M136.4184,135.3075s43.722-15.0942,44.46-7.08l-3.51,120.63s-44.1238,8.6173-44.55,9.39C132.8184,258.2475,127.9757,161.2254,136.4184,135.3075Z"/><path d="M356.8984,155.2475c-.15.36-.39.52-.79.27a2.7874,2.7874,0,0,1-.12-.66A3.3362,3.3362,0,0,1,356.8984,155.2475Z"/><path class="d" d="M450.0784,194.9875c-1.08-.04-1.35-.05-2.43-.12-7.86-.24-15.66-1.27-23.51-1.64a10.3194,10.3194,0,0,1-1.21-.08c-.05-.07-.11-.13-.16-.2-5.49-6.62-10.98-13.27-16.85-19.55a3.5407,3.5407,0,0,1-.48-.47l-.88-.87a1.0991,1.0991,0,0,0-.18-.14c5.58-4.73,10.64-9.59,16.87-13.15.49-.32.74-.31,1.06-.52a1.07,1.07,0,0,1,.1.12c2.85,2.85,5.56,5.83,8.35,8.73,1.4,1.46,2.81,2.89,4.28,4.28a23.5057,23.5057,0,0,0,5.62,4.41,25.74,25.74,0,0,0,6.13,1.47c.52.1,1.04.21,1.56.34a5.4571,5.4571,0,0,1,1.2.47,17.0061,17.0061,0,0,1-.08,1.84c-.05,1.17-.07,2.34-.09,3.51-.01.59-.01,1.18-.01,1.77C449.4384,188.4275,449.8184,191.8975,450.0784,194.9875Z"/><path class="d" d="M458.0884,220.9175c-1.15-.1-2.29-.2-3.44-.3-22.76-1.3-45.56-1.91-68.34-2.82-9-.14-18.01-.05-27.02.02.07-.48.03-1.09.09-1.39.13-1.69.25-5.74.37-7.43.55-7.98,1.04-15.98,1.16-23.98.08-3.91.06-7.82-.03-11.73.65,0,2.66-.01,2.67-.01l.06-.01c10.32-.66,21.32.26,30.98-.04.43-.01.85-.02,1.28-.02a7.4834,7.4834,0,0,0,.82-.02c2.49-.04,4.98-.09,7.47-.12,5.05,5.04,9.47,10.69,14.17,16.06,1.3,1.54,2.59,3.09,3.84,4.66a.8682.8682,0,0,0,.66.36c8.78.39,17.53,1.58,26.33,1.76a12.1312,12.1312,0,0,1,2.06.05c1.4.87,3.13,1.35,4.43,2.21,1.17.75,1.88,1.13,2.06,2.16.15,5.01.23,11.52.37,17.04C458.1684,218.3275,458.0584,219.7275,458.0884,220.9175Z"/><path d="M420.9084,157.8575a55.29,55.29,0,0,0-9.49,6.76c-2.66,2.2-5.3,4.42-7.89,6.69-.05.06-.56.58-.63.63l-6.83.23h-.48c-.73-.03-3,.12-3.21.09-.04,0-5.18.19-6.03.14l3.01-4.24a44.8045,44.8045,0,0,1,7.95-7.17,17.9917,17.9917,0,0,1,7.09-3.56c4.2-.22,9.8,0,14.49.21C419.6384,157.6775,420.2784,157.7675,420.9084,157.8575Z"/><path class="d" d="M397.2184,159.8275a48.1208,48.1208,0,0,0-9.03,8.43l-2.96,4.2c-6.92-.23-16.78-.7-24.38-.08-.03-1.59-.08-3.18-.14-4.77-.07-3.51-.29-7.21-2.12-10.26.06-.05.23-.09.31-.14,4.95-2.34,11.43-5.83,15.48-7.75,4.99,1.26,10.59,4.39,15.87,6.86C392.6084,157.3675,394.8684,158.8475,397.2184,159.8275Z"/><path d="M371.3084,149.8475c-.67.34-1.33.69-2,1.03-3.27,1.66-6.53,3.33-9.82,4.94-.4.27-.92.48-1.28.78a9.0788,9.0788,0,0,0-.61-.78,2.5071,2.5071,0,0,0-.7-.57,17.2772,17.2772,0,0,0,.25-3.31c-.01-.38-.01-.78-.02-1.18a30.5233,30.5233,0,0,1,3.55-.37h.01c.21-.01.41-.02.62-.03h.04C364.6684,150.1875,367.9884,150.0575,371.3084,149.8475Z"/><path d="M355.9884,154.8575c-1.04-.3-2.25-.27-3.29-.47-3.25-.36-7.88-.8-9.92-1.23a52.2862,52.2862,0,0,1-5.73-5.69c-.37-.38-.76-.93-1.03-1.25l-2.25-2.11c-.96-.93-1.92-1.86-2.89-2.77a118.4125,118.4125,0,0,0,13.8,1.55c2.71.18,5.43.37,8.14.55h.02c0-.01.57.03.78.05.13.01.36.09.76.59,1.37,1.44,1.69,3.8,1.76,6.17C356.2484,151.3275,355.8884,153.5375,355.9884,154.8575Z"/><path class="c" d="M359.3584,199.3775c-.23,4.25-.52,8.51-.83,12.76-.09,1.12-.17,4.35-.25,5.69-4.5.04-9.01.08-13.51.08a5.81,5.81,0,0,1-.01-.93c.05-6.49.22-12.98.43-19.46.03-3.22.1021-6.5-.9179-9.6a5.08,5.08,0,0,0-1.083-1.9947,1.3532,1.3532,0,0,0-.6106-.2431,8.5314,8.5314,0,0,0-1.1787-.2053c-2.4584-.2822-4.932-.4189-7.3969-.6328q-3.744-.3247-7.4807-.7265-3.7364-.3995-7.4655-.8624c-.3341-.0413-.6754-.0663-1.0067-.1254-1.29-.23-3.1-.2-3.63-.93-8.82-11.23-17.35-21.95-25.9-33.2,6.1-5.91,12.2-13.24,18.4-19.04,1.55-1.46,2.88-2.42,4.4-3.61,4.6,3.08,10.43,8.21,15.24,12.44,2.86,2.45,5.56,5.09,8.24,7.73.17.17.5.41.5.42,1.83,2.7,4.48,4.87,6.9,7.03a21.8142,21.8142,0,0,0,4.03.72c3.42.51,7.53.5,10.11,1.36,3.49,2.89,3.3,9,3.45,14.13C360.1384,179.9075,359.9284,189.6575,359.3584,199.3775Z"/><path d="M310.3084,125.8875c-4.87,3.58-8.89,8.14-12.92,12.61-2.36,2.65-4.76,5.27-7.25,7.8-.38.5-1.61,1.35-2.14,2.02-.04-.05-.08-.11-.12-.16-.53-.69-7.48-9.97-10.64-12.83l-.3607-.5636c-.05-1.64.1907-3.7264-.0294-6.6664C287.9784,127.3575,299.6584,126.4675,310.3084,125.8875Z"/><path d="M276.2384,133.1575a4.3561,4.3561,0,0,0-.32-.44,304.0528,304.0528,0,0,1-20.66-25.87q5.565.51,11.12,1.01a8.75,8.75,0,0,1,4.78,1.4,8.3134,8.3134,0,0,1,2.18,3.47c1.01,2.41,1.37,2.93,2.52,12.68C275.8884,125.6975,276.0684,130.2375,276.2384,133.1575Z"/><path d="M553.7684,268.8938c-.19-.43-.74-.65-1.06-.98-4.03-3.27-8.11-6.47-12.21-9.65-5.26-4-10.45-8.12-15.98-11.75-5.51-3.45-11.33-6.37-17.05-9.46-8.23-4.24-16.27-9.06-25.08-12.02a121.3056,121.3056,0,0,0-23.28-4.02c-.1-7.04-.15-14.1-.47-21.12-.25-1.17-1.34-1.87-2.29-2.47-1.21-.8-4.51-2.04-5.07-2.38a.0367.0367,0,0,0-.01-.03c-.29-3.38-.88-7.39-.89-11.16v-3.37c-.01-.57-.01-1.14-.01-1.71,0-.39.12-1.05-.13-1.38a.9026.9026,0,0,0-.47-.28,38.7571,38.7571,0,0,0-4.72-1.18,14.4445,14.4445,0,0,1-4.62-1.33,31.2764,31.2764,0,0,1-5.63-4.9q-4.635-4.68-9.2-9.45c-.6-.55-1.29-1.36-1.99-2.12-.3384-.5347-.4178-.7332-.62-1.03-.37-.0524-.5845-.08-.6445-.09-.31-.02-.562-.0524-.632-.0624-.1-.02-.5135-.0479-.5735-.0679a112.3683,112.3683,0,0,0-11.89-.52,38.1843,38.1843,0,0,0-5.02.08,15.8207,15.8207,0,0,0-4.73,1.86c-.47.3-.95.61-1.42.93a19.2056,19.2056,0,0,0-1.72-.92c-6.71-3.42-13.42-6.94-20.51-9.54a3.0029,3.0029,0,0,0-1.95-.22.8446.8446,0,0,1-.33.12l-.32.04c-3.9.41-7.93.26-11.8.68-.05-.02-.33.04-.46.04-1.44.11-2.5.11-3.88.32-.09-2.54-.49-5.23-2.55-6.8a2.04,2.04,0,0,0-.77-.24c.03.02-.77-.12-.96-.11-7.51-.56-14.64-.92-21.68-2.23-.54-.03-1.11-.31-1.65-.31-.37-.34-.73-.68-1.1-1.01-4.69-4.04-9.25-8.24-14.23-11.92a27.2722,27.2722,0,0,0-3.32-2.2c-.43-.16-.61.03-.78,0-10.66.52-21.3,1.31-31.93,2.12-.69.01-1.04-.13-1.38-.08-.43-5.42-1.19-11.59-2.53-14.59-.78-1.76-1.26-3.22-2.57-3.95a16.7412,16.7412,0,0,0-9.2-1.66c-1.39-.14-2.74-.29-4.12-.43-1.19-.41-2.88-.09-4.07-.88a5.4286,5.4286,0,0,1-1.31-1.39,37.8513,37.8513,0,0,0-4.12-4.64,13.0049,13.0049,0,0,0-1.27-1.08.0858.0858,0,0,0,.03-.06,3.0664,3.0664,0,0,0-.15-.98c-.13-.44-1-.73-1.45-.82-7.37-1.52-15.08-1.22-22.54-1.33-.09,0-.19-.01-.31-.02a4.9608,4.9608,0,0,1-.67-1.8c-.98-4.47-.44-9.74-.78-14.67a5.8084,5.8084,0,0,0-.38-2.24,2.78,2.78,0,0,0-1.26-.74c-2.43-.7-4.96-1.07-7.4-1.77-.4-1.78-1.23-3.19-3.08-3.09-3.9-.05-7.8.23-11.69.52-4.74.35-9.72,1.39-13.57,4.31-1.59,1.05-1.49,2.81-1.45,4.49-.02,3.26.07,6.51.19,9.76.07,1.82.17,3.63.28,5.45-.75-.07-2.4,1.08-2.9,1.19-6.26,3.04-12.58,6.05-18.27,10.09a98.5209,98.5209,0,0,0-9.2,7.2,75.2189,75.2189,0,0,0-10.5,10.46,42.8542,42.8542,0,0,0-5.57,7.56c-.21.48-.56.96-.75,1.46-.14-.01.02-.03-.09.07a36.8282,36.8282,0,0,0-.95,4.58c-1.71,15.29-3.1,30.63-3.98,45.99-.61,13.05-.51,26.12-.48,39.18.06,10.42.51,20.84,1.45,31.22a35.8125,35.8125,0,0,0,.49,3.58.5249.5249,0,0,0,.23.3.5043.5043,0,0,0,.73-.57c-1.82-14.06-1.91-29.55-1.92-44.19-.34-25.77,1.71-51.47,4.66-77.05a7.3867,7.3867,0,0,1,.13-1.13c8.63-2.01,17.28-4.05,26.01-5.58,5.68-.96,12.3-1.02,18.45-1.5.01,0,.02-.01.03-.02-.08,1.2-.17,2.4-.24,3.6-1.08,15.23-1.64,30.5-2.02,45.76-.54,22.93-1.92,45.85-1.44,68.79.11.81-.01,1.7.16,2.5-13.51,2.81-27.19,4.74-40.5,8.42-13.36,3.59-26.3,8.61-39.34,13.19-2.66.98-50.52,18.41-53.22,19.22a.5027.5027,0,0,0,.43.88c14.63-4.79,74.11-27.09,88.9-31.38,12.85-3.72,26.04-5.9,39.16-8.39,19.59-3.94,39.01-8.74,58.27-14.04,12.44-3.48,24.57-7.95,36.98-11.53,23.01-5.94,46.71-6.4,70.56-6.32,1.79.01,3.58.01,5.37.01a5.23,5.23,0,0,1,.56,0c15.4-.02,31.682-.1137,46.2-.01,14.1332.1009,28.24,1.15,42.37,1.66,8.25.33,16.8.6,25.06,1.33v.01a6.0914,6.0914,0,0,1,.94.13c0-.01.01-.01.01-.02,3.56.33,7.06.74,10.45,1.27a75.12,75.12,0,0,1,14.8,3.48c7.34,2.84,14.78,7.08,22.1,10.89,6.94,3.78,14.12,7.21,20.59,11.78,6.88,4.95,13.18,9.85,19.71,14.99,2.06,1.64,4.12,3.29,6.16,4.95a.5.5,0,0,0,.84-.48Zm-132.52-110.13c.49-.32.74-.31,1.06-.52a1.0579,1.0579,0,0,1,.1.12c2.85,2.85,5.56,5.83,8.35,8.73,1.4,1.46,2.81,2.89,4.28,4.28a23.5057,23.5057,0,0,0,5.62,4.41,25.7409,25.7409,0,0,0,6.13,1.47c.52.1,1.04.21,1.56.34a5.4578,5.4578,0,0,1,1.2.47,16.9806,16.9806,0,0,1-.08,1.84c-.05,1.17-.07,2.34-.09,3.51-.01.59-.01,1.18-.01,1.77.07,3.24.45,6.71.71,9.8-1.08-.04-1.35-.05-2.43-.12-7.86-.24-15.66-1.27-23.51-1.64a10.3194,10.3194,0,0,1-1.21-.08c-.05-.07-.11-.13-.16-.2-5.49-6.62-10.98-13.27-16.85-19.55a3.54,3.54,0,0,1-.48-.47l-.88-.87a1.0991,1.0991,0,0,0-.18-.14C409.9584,167.1838,415.0184,162.3238,421.2485,158.7638Zm-62.35-1.56c4.95-2.34,11.43-5.83,15.48-7.75,4.99,1.26,10.59,4.39,15.87,6.86,2.36,1.05,4.62,2.53,6.97,3.51a48.1233,48.1233,0,0,0-9.03,8.43l-2.96,4.2c-6.92-.23-16.78-.7-24.38-.08-.03-1.59-.08-3.18-.14-4.77-.07-3.51-.29-7.21-2.12-10.26C358.6484,157.2938,358.8185,157.2538,358.8984,157.2038Zm-149.1,77.33c.07,1.79.08,4.85.24,6.7q-15.7948,3.99-31.74,7.42c.03-1.16-.15-2.36-.13-3.53-.29-18.15.49-36.3,1.1-54.45.5-16.84.85-33.7,1.85-50.53.71-11.62,1.64-23.22,2.64-34.82.11-1.55.25-3.1.36-4.65.01-.04.22-3.91.22-4.23-.34-5.9-.43-8.06-.47-13.97.1-2.03-.35-4.78.52-5.51,4.77-4.31,12.22-4.59,18.96-4.98,2.47-.06,6.88-.5,7.53.23a5.9069,5.9069,0,0,1,.7,1.63.01.01,0,0,0-.01.01v.01c.1,0,.2.86.21.86.23,1.28.27,2.67.38,4.11.2,3.62.17,7.25.17,10.87-.12,23.01-1.39,45.99-1.83,69-.44,18.9-.09,37.81-.61,56.71C209.7784,221.7838,209.6785,228.1638,209.7984,234.5338Zm65.51-56.92c-.15,14.88-.83,29.76-.49,44.65,0,.12,0,.18.01.35-3.03.63-5.92,1.31-8.9,2.17-11.47,3.46-22.77,7.49-34.3,10.76-1.56.44-3.13.85-4.7,1.28l-.98.26q-7.4552,2.025-14.95,3.91c-.04-1.14-.11-3.31-.14-4.31-.13-4.13-.13-8.25-.09-12.38.47-21.1.36-42.21.68-63.31.19-10.42.54-20.83.9-31.24.89-.1,1.78-.21,2.69-.29.52-.03,1.06-.12,1.58-.18.23-.02.59-.1.82-.11.44-.11.79-.17.98-.23a9.9772,9.9772,0,0,0,1.16-.44c.01-.01.02-.01.03-.02,1.49-.84,2.52-2.54,3.67-3.89.32-.33.86-1,1.05-1.21.41-.47.83-.95,1.24-1.42.81-.91,1.61-1.81,2.43-2.71q2.43-2.685,4.94-5.32c3.32-3.52,6.71-6.98,10.07-10.47,1.37-1.44,2.77-2.86,4.15-4.28,10.21,10.47,18.18,24.45,28.63,34.69.03,4.95-.32,11.52-.38,16.42C275.3085,159.3938,275.4084,168.5038,275.3085,177.6138Zm68.81,22.48q-.3152,8.895-.36,17.81h-2.24c-17.79-.03-35.65-.04-53.3,2.43-4.16.58-8.24,1.22-12.37,2.05.01-.72-.1-1.18-.07-2.1-.15-22.76.84-45.51.61-68.27.02-4.93.34-9.85.42-14.77-.02-.26-.0255-1.3323-.0155-1.6423,5.81,5.81,10.0654,13.1423,15.2454,19.6123,4.61,6.07,9.35,12.03,14.07,18.02,2.75,3.25,5.13,6.97,8.05,10.01a1.0466,1.0466,0,0,0,.45.27c2.56.72,5.29.75,7.92,1.15.5991.09,1.2074.1405,1.8094.2088q.9142.1036,1.8288.2036,1.83.2,3.6612.3821t3.6658.343q1.8343.1607,3.6707.2974c1.2109.09,2.4272.1436,3.6362.25.3625.032.7169.0287,1.0785.0746a1.3425,1.3425,0,0,1,.44.084,1.1811,1.1811,0,0,1,.4.3994,7.3169,7.3169,0,0,1,1.1471,3.0043c.0109.0541.0228.1081.0323.1625A57.678,57.678,0,0,1,344.1185,200.0938Zm14.16,17.73c-4.5.04-9.01.08-13.51.08a5.81,5.81,0,0,1-.01-.93c.05-6.49.22-12.98.43-19.46.03-3.22.2-6.54-.82-9.64a4.9639,4.9639,0,0,0-1.1278-1.9345.9882.9882,0,0,0-.434-.2527c-1.3253-.3044-2.3983-.2628-3.6682-.4428-7.05-.5-14.08-1.24-21.09-2.12-1.29-.23-3.1-.2-3.63-.93-8.82-11.23-17.35-21.95-25.9-33.2,6.1-5.91,12.2-13.24,18.4-19.04a56.8962,56.8962,0,0,1,4.4-3.61c4.6,3.08,10.43,8.21,15.24,12.44,2.86,2.45,5.56,5.09,8.24,7.73.17.17.5.41.5.42,1.83,2.7,4.48,4.87,6.9,7.03a21.8132,21.8132,0,0,0,4.03.72c3.42.51,7.53.5,10.11,1.36,3.49,2.89,3.3,9,3.45,14.13.35,9.73.14,19.48-.43,29.2-.23,4.25-.52,8.51-.83,12.76C358.4385,213.2538,358.3584,216.4838,358.2784,217.8238Zm99.81,3.09c-1.15-.1-2.29-.2-3.44-.3-22.76-1.3-45.56-1.91-68.34-2.82-9-.14-18.01-.05-27.02.02.07-.48.03-1.09.09-1.39.13-1.69.25-5.74.37-7.43.55-7.98,1.04-15.98,1.16-23.98.08-3.91.06-7.82-.03-11.73.65,0,2.66-.01,2.67-.01l.06-.01c10.32-.66,21.32.26,30.98-.04.43-.01.85-.02,1.28-.02a7.484,7.484,0,0,0,.82-.02c2.49-.04,4.98-.09,7.47-.12,5.05,5.04,9.47,10.69,14.17,16.06,1.3,1.54,2.59,3.09,3.84,4.66a.8685.8685,0,0,0,.66.36c8.78.39,17.53,1.58,26.33,1.76a12.1312,12.1312,0,0,1,2.06.05c1.4.87,3.13,1.35,4.43,2.21,1.17.75,1.88,1.13,2.06,2.16.15,5.01.23,11.52.37,17.04C458.1684,218.3238,458.0585,219.7238,458.0884,220.9138Z"/><path d="M183.3284,96.3175c-.52,10.35-1.61,20.66-2.36,31a.3315.3315,0,0,0-.32-.06c-5.9.43-11.84.49-17.7,1.39-7.79,1.22-15.45,3.18-23.16,4.83-.98.24-1.98.41-2.96.66a.3838.3838,0,0,0,.11-.11c1.67-3.73,3.95-6.36,6.55-9.38a73.0149,73.0149,0,0,1,8.19-8.4,112.6946,112.6946,0,0,1,15.09-11.43c4.43-2.73,9.18-4.92,13.83-7.24C181.5084,97.1475,182.4084,96.7275,183.3284,96.3175Z"/><path class="a" d="M212.3284,89.7075c-.12,23.01-1.39,45.99-1.83,69-.44,18.9-.09,37.81-.61,56.71-.11,6.37-.21,12.75-.09,19.12.07,1.79.08,4.85.24,6.7q-15.795,3.99-31.74,7.42c.03-1.16-.15-2.36-.13-3.53-.29-18.15.49-36.3,1.1-54.45.5-16.84.85-33.7,1.85-50.53.71-11.62,1.64-23.22,2.64-34.82.11-1.55.25-3.1.36-4.65.01-.04.22-3.91.22-4.23-.34-5.9-.43-8.06-.47-13.97.1-2.03-.35-4.78.52-5.51,4.77-4.31,12.22-4.59,18.96-4.98,2.47-.06,6.88-.5,7.53.23a5.9072,5.9072,0,0,1,.7,1.63.01.01,0,0,0-.01.01v.01c.1,0,.2.86.21.86.23,1.28.27,2.67.38,4.11C212.3584,82.4575,212.3284,86.0875,212.3284,89.7075Z"/><path class="b" d="M316.0662,218.6726v-27.007a1.1956,1.1956,0,0,1,1.1956-1.1956H330.747a1.1956,1.1956,0,0,1,1.1956,1.1956v26.7649"/><path class="b" d="M294.9225,210.5613l.2052-18.4158a.86.86,0,0,1,.87-.8506l9.702.1081a.86.86,0,0,1,.8506.87l-.2036,18.27a1,1,0,0,1-.9949.99c-2.149.01-7.2436.0332-9.4289.04A.9977.9977,0,0,1,294.9225,210.5613Z"/><path class="b" d="M317.87,177.0142l.1514-13.5876a.6348.6348,0,0,1,.6418-.6276l7.1584.08a.6348.6348,0,0,1,.6276.6418l-.15,13.48a.7378.7378,0,0,1-.7341.7308c-1.5855.0074-5.3445.0245-6.9569.03A.7363.7363,0,0,1,317.87,177.0142Z"/><path class="b" d="M334.4988,177.0142l.1514-13.5876a.6347.6347,0,0,1,.6417-.6276l7.1585.08a.6348.6348,0,0,1,.6276.6418l-.15,13.48a.7378.7378,0,0,1-.7342.7308c-1.5855.0074-5.3444.0245-6.9568.03A.7362.7362,0,0,1,334.4988,177.0142Z"/><path class="b" d="M441.1,220.228V202.1748a.7992.7992,0,0,1,.7992-.7992h9.0143a.7992.7992,0,0,1,.7992.7992l-.1436,18.6566"/><path class="b" d="M369.849,217.6924V199.6392a.7992.7992,0,0,1,.7992-.7992h9.0143a.7992.7992,0,0,1,.7992.7992l.1293,18.1827"/><path class="b" d="M428.21,212.16v-10.13a.465.465,0,0,1,.465-.465h5.245a.465.465,0,0,1,.465.465l-.08,10.4424a.39.39,0,0,1-.413.3885c-1.1226-.067-4.2344-.2521-5.314-.3094A.3889.3889,0,0,1,428.21,212.16Z"/><path class="b" d="M412.6258,211.25V201.99a.4251.4251,0,0,1,.4251-.4251h4.7949a.4252.4252,0,0,1,.4252.4251l-.0735,9.5463a.3567.3567,0,0,1-.3777.3551c-1.0261-.0612-3.871-.23-4.8579-.2829A.3555.3555,0,0,1,412.6258,211.25Z"/><path class="b" d="M424.8575,189.45v-9.2608a.4252.4252,0,0,1,.4251-.4252h4.7949a.4252.4252,0,0,1,.4251.4252l-.0734,9.5463a.3568.3568,0,0,1-.3777.3551c-1.0262-.0612-3.871-.23-4.8579-.2829A.3554.3554,0,0,1,424.8575,189.45Z"/><path class="b" d="M437.2045,189.8709V180.61a.4251.4251,0,0,1,.4251-.4251h4.7949a.4251.4251,0,0,1,.4251.4251l-.0735,9.5463a.3566.3566,0,0,1-.3776.3551c-1.0262-.0612-3.871-.23-4.858-.2829A.3554.3554,0,0,1,437.2045,189.8709Z"/><path class="b" d="M386.7115,212.16v-10.13a.465.465,0,0,1,.4651-.465h5.2449a.465.465,0,0,1,.4651.465l-.08,10.4424a.39.39,0,0,1-.4131.3885c-1.1225-.067-4.2344-.2521-5.314-.3094A.3889.3889,0,0,1,386.7115,212.16Z"/><path class="b" d="M386.7115,189.5849v-10.13a.4651.4651,0,0,1,.4651-.4651h5.2449a.4651.4651,0,0,1,.4651.4651l-.08,10.4424a.39.39,0,0,1-.4131.3885c-1.1225-.067-4.2344-.2521-5.314-.3095A.3888.3888,0,0,1,386.7115,189.5849Z"/><path class="b" d="M371.6115,190.316V179.4693a.4979.4979,0,0,1,.4979-.4979h5.616a.4979.4979,0,0,1,.4979.4979l-.0861,11.181a.4178.4178,0,0,1-.4423.416c-1.2019-.0718-4.5339-.27-5.69-.3313A.4164.4164,0,0,1,371.6115,190.316Z"/><line class="b" x1="404.1569" y1="173.0656" x2="402.7463" y2="218.554"/><path class="b" d="M218.3733,239.65l.5223-49.1182a1.65,1.65,0,0,1,1.3424-1.6029l20.0526-3.8008a1.65,1.65,0,0,1,1.9569,1.6148l.1859,45.807"/><path class="b" d="M252.2821,206.5313l.2358-21.7229a.7728.7728,0,0,1,.6288-.7509l9.3939-1.7806a.7728.7728,0,0,1,.9167.7562l.0847,20.8518a.7931.7931,0,0,1-.5834.768l-9.6739,2.6518A.793.793,0,0,1,252.2821,206.5313Z"/><path class="b" d="M251.5878,161.4032l.2357-21.7229a.7728.7728,0,0,1,.6289-.7509l9.3939-1.7806a.7728.7728,0,0,1,.9167.7562l.0846,20.8518a.7927.7927,0,0,1-.5833.7679l-9.6739,2.6519A.793.793,0,0,1,251.5878,161.4032Z"/><path class="b" d="M221.9416,168.0341l.2565-23.63a.8407.8407,0,0,1,.684-.8169l10.2184-1.9368a.8406.8406,0,0,1,.9972.8225l.0921,22.682a.8626.8626,0,0,1-.6346.8354l-10.523,2.8846A.8626.8626,0,0,1,221.9416,168.0341Z"/><path class="b" d="M150.2636,187.4313l.2357-21.7229a.7728.7728,0,0,1,.6289-.7509l9.3939-1.7806a.7728.7728,0,0,1,.9167.7562l.0846,22.427a.7929.7929,0,0,1-.5833.768l-9.674,1.0766A.7929.7929,0,0,1,150.2636,187.4313Z"/><path class="b" d="M150.3121,230.574l.2358-21.7229a.7727.7727,0,0,1,.6288-.7509l9.3939-1.7806a.7729.7729,0,0,1,.9168.7562l.0846,22.427a.793.793,0,0,1-.5833.768l-9.674,1.0766A.793.793,0,0,1,150.3121,230.574Z"/><path class="b" d="M239.8891,116.072l15.1648.2226a.621.621,0,0,0,.5607-.9131c-1.78-3.2986-8.4232-13.566-16.2488-.2568A.6252.6252,0,0,0,239.8891,116.072Z"/><path class="b" d="M150.009,146.3862l15.1127-1.2755a.6209.6209,0,0,0,.4678-.9639c-2.0974-3.1068-9.7212-12.6683-16.1948,1.3483A.6253.6253,0,0,0,150.009,146.3862Z"/><path class="b" d="M305.32,138.83l15.1648.2226a.621.621,0,0,0,.5607-.9131c-1.78-3.2986-8.4233-13.566-16.2488-.2568A.6252.6252,0,0,0,305.32,138.83Z"/><path class="b" d="M369.5441,157.424l11.3978.1672a.4667.4667,0,0,0,.4214-.6862c-1.3382-2.4792-6.3308-10.1961-12.2125-.1931A.47.47,0,0,0,369.5441,157.424Z"/><path class="b" d="M415.6927,167.4275l11.3978.1673a.4667.4667,0,0,0,.4214-.6863c-1.3382-2.4792-6.3308-10.1961-12.2125-.193A.47.47,0,0,0,415.6927,167.4275Z"/><path class="e" d="M53.573,259.3944a16.1766,16.1766,0,0,1-22.9449-5.5866c-4.256-7.5086-8.0808-18.5756-6.9482-33.2916,2.3439-30.4564,7.6673-65.0868,23.3241-69.958,15.077-4.6907,22.3944,56.8541,22.3944,70.8287C69.3984,232.8666,70.0438,248.4334,53.573,259.3944Z"/><path d="M55.65,225.0769c-.3-.5712-.8157.0451-1.12.2909a47.6775,47.6775,0,0,1-5.6943,4.0938c-.5764.3453-1.1654.6694-1.77.9633a89.3947,89.3947,0,0,0-.1312-14.392.399.399,0,0,0-.0187-.2382c-.5547-6.9749-1.56-13.9368-1.9913-20.9114-.1095-1.2042-.1256-2.4271-.2684-3.6218a.3876.3876,0,0,0-.6281-.1246c-.1664.1628-.0991.4025-.092.6093q.1218,1.907.263,3.8126c.4572,6.5318,1.3391,13.0609,1.8752,19.5979a30.4664,30.4664,0,0,1-6.7275-6.55.39.39,0,0,0-.6475.3769,32.4077,32.4077,0,0,0,4.8614,5.2383,19.174,19.174,0,0,0,2.5877,1.9121l.0047.0031a89.34,89.34,0,0,1-.0583,16.8208c-.373,4.51-.9681,8.9952-1.55,13.4821a62.2685,62.2685,0,0,1-8.0067-7.8362.3878.3878,0,0,0-.5229.4571,45.6324,45.6324,0,0,0,8.4225,8.2081c-.3591,2.784-.7076,5.5693-.9885,8.3623a154.0551,154.0551,0,0,0-.5,23.623c.229,3.1569.5971,6.3012.9888,9.4413a6.7322,6.7322,0,0,0,.2619,1.6746.3915.3915,0,0,0,.6615-.2739c-.5469-4.8518-1.187-9.7-1.3558-14.5853-.1562-5.8289.1293-11.6616.5042-17.4775.2882-3.4614.706-6.9091,1.147-10.3542a.4323.4323,0,0,0,.05-.386c.6829-5.3145,1.4009-10.6251,1.7865-15.9706a36.5884,36.5884,0,0,0,6.8-4.3749,16.1422,16.1422,0,0,0,1.8559-1.572A.3377.3377,0,0,0,55.65,225.0769Z"/><path class="e" d="M527.9632,232.8673a7.2708,7.2708,0,0,1-10.3129-2.511,25.8275,25.8275,0,0,1-3.123-14.9634c1.0536-13.689,3.4462-29.2542,10.4834-31.4436,6.7766-2.1083,10.0655,25.5539,10.0655,31.835C535.0762,220.944,535.3662,227.9407,527.9632,232.8673Z"/><path d="M528.8969,217.4428c-.1346-.2567-.3666.02-.5033.1307a21.4165,21.4165,0,0,1-2.5594,1.84c-.259.1553-.5238.3009-.7954.433a40.1754,40.1754,0,0,0-.059-6.4687.179.179,0,0,0-.0084-.107c-.2493-3.135-.7012-6.2641-.895-9.3989-.0492-.5413-.0565-1.0909-.1207-1.6279a.1742.1742,0,0,0-.2823-.056c-.0748.0732-.0445.1809-.0413.2738q.0547.8571.1182,1.7137c.2055,2.9358.6019,5.87.8428,8.8085a13.6924,13.6924,0,0,1-3.0237-2.9441.1752.1752,0,0,0-.2911.1694,14.5618,14.5618,0,0,0,2.1851,2.3544,8.6177,8.6177,0,0,0,1.1631.8595l.0021.0013a40.1538,40.1538,0,0,1-.0263,7.56c-.1676,2.027-.4351,4.043-.6964,6.06a27.9839,27.9839,0,0,1-3.5987-3.5221.1744.1744,0,0,0-.2351.2055,20.5107,20.5107,0,0,0,3.7857,3.6892c-.1614,1.2513-.3181,2.5032-.4443,3.7586a69.2315,69.2315,0,0,0-.2248,10.6177c.1029,1.4189.2683,2.8321.4444,4.2435a3.03,3.03,0,0,0,.1177.7527.176.176,0,0,0,.2973-.1232c-.2458-2.1807-.5335-4.36-.6094-6.5555-.07-2.62.0582-5.2415.2266-7.8555.13-1.5558.3174-3.1054.5156-4.6539a.1943.1943,0,0,0,.0224-.1735c.3069-2.3886.63-4.7756.803-7.1782a16.4473,16.4473,0,0,0,3.0564-1.9663,7.2556,7.2556,0,0,0,.8342-.7066A.1518.1518,0,0,0,528.8969,217.4428Z"/><path class="f" d="M101.4008,249.68a11.5828,11.5828,0,0,1-16.4291-4,41.1444,41.1444,0,0,1-4.9751-23.8376c1.6784-21.8075,5.49-46.6037,16.7007-50.0916,10.7954-3.3587,16.0349,40.7088,16.0349,50.7151C112.7322,230.6854,113.1943,241.8316,101.4008,249.68Z"/><path d="M102.8882,225.1077c-.2144-.4089-.5841.0323-.8017.2083a34.14,34.14,0,0,1-4.0773,2.9313c-.4127.2472-.8345.4793-1.2672.69a64.0023,64.0023,0,0,0-.094-10.305.2852.2852,0,0,0-.0133-.1705c-.3972-4.9942-1.1171-9.9791-1.4258-14.9731-.0785-.8622-.09-1.7378-.1922-2.5933a.2776.2776,0,0,0-.45-.0892c-.1191.1166-.0709.2882-.0659.4362q.0873,1.3655.1884,2.73c.3273,4.6769.9588,9.3519,1.3427,14.0325a21.8129,21.8129,0,0,1-4.8171-4.69.2791.2791,0,0,0-.4636.27,23.2028,23.2028,0,0,0,3.4809,3.7507,13.7194,13.7194,0,0,0,1.8529,1.3691l.0033.0022a63.9633,63.9633,0,0,1-.0418,12.0441c-.267,3.2292-.6932,6.4408-1.1094,9.6535a44.587,44.587,0,0,1-5.733-5.6109.2777.2777,0,0,0-.3745.3273,32.6732,32.6732,0,0,0,6.0308,5.8772c-.2572,1.9935-.5067,3.9878-.7078,5.9876A110.3046,110.3046,0,0,0,93.7946,263.9c.164,2.26.4276,4.5117.708,6.76a4.8208,4.8208,0,0,0,.1876,1.199.28.28,0,0,0,.4736-.1961c-.3916-3.4741-.85-6.9457-.9708-10.4434-.1118-4.1737.0926-8.35.361-12.5144.2064-2.4784.5055-4.947.8214-7.4138a.31.31,0,0,0,.0356-.2764c.489-3.8053,1.0031-7.6078,1.2792-11.4353a26.2013,26.2013,0,0,0,4.8692-3.1326,11.5682,11.5682,0,0,0,1.3288-1.1255A.2421.2421,0,0,0,102.8882,225.1077Z"/><path class="f" d="M494.6484,219.771a5.0278,5.0278,0,0,1-7.1315-1.7364,17.86,17.86,0,0,1-2.16-10.3474c.7285-9.4662,2.3831-20.23,7.2494-21.7438,4.6861-1.458,6.9605,17.6709,6.9605,22.0144C499.5672,211.5258,499.7677,216.3642,494.6484,219.771Z"/><path d="M495.2941,209.1047c-.0931-.1775-.2536.014-.348.09a14.82,14.82,0,0,1-1.77,1.2724c-.1792.1073-.3622.2081-.55.2994a27.7748,27.7748,0,0,0-.0408-4.4732.1234.1234,0,0,0-.0058-.074c-.1724-2.1679-.4849-4.3318-.6189-6.4995-.034-.3743-.039-.7544-.0834-1.1257a.12.12,0,0,0-.1952-.0388c-.0518.0506-.0308.1251-.0286.1894q.0378.5926.0817,1.185c.1421,2.03.4162,4.0595.5829,6.0913a9.4675,9.4675,0,0,1-2.091-2.036.1212.1212,0,0,0-.2013.1172,10.0729,10.0729,0,0,0,1.511,1.6281,5.9547,5.9547,0,0,0,.8043.5943l.0015.001a27.7653,27.7653,0,0,1-.0182,5.2281c-.1159,1.4017-.3009,2.7958-.4816,4.19a19.3552,19.3552,0,0,1-2.4886-2.4356.1206.1206,0,0,0-.1625.1421,14.1872,14.1872,0,0,0,2.6178,2.5512c-.1116.8653-.22,1.731-.3072,2.5991a47.88,47.88,0,0,0-.1555,7.3423c.0712.9812.1856,1.9585.3074,2.9345a2.09,2.09,0,0,0,.0814.52.1217.1217,0,0,0,.2056-.0852c-.17-1.508-.369-3.015-.4214-4.5333-.0486-1.8117.04-3.6245.1567-5.4322.0895-1.0758.2194-2.1474.3565-3.2182a.1344.1344,0,0,0,.0155-.12c.2122-1.6518.4354-3.3024.5552-4.9638a11.3709,11.3709,0,0,0,2.1137-1.36,5.0294,5.0294,0,0,0,.5768-.4886A.1051.1051,0,0,0,495.2941,209.1047Z"/><path class="f" d="M557.0983,257.3286a6.1558,6.1558,0,0,1-8.7313-2.1258,21.8665,21.8665,0,0,1-2.644-12.6686c.8919-11.59,2.9176-24.7676,8.8756-26.6212,5.7372-1.785,8.5218,21.6347,8.5218,26.9526C563.12,247.2339,563.3659,253.1576,557.0983,257.3286Z"/><path d="M557.8887,244.27c-.1139-.2173-.31.0172-.426.1107a18.1324,18.1324,0,0,1-2.1669,1.5578c-.2193.1314-.4435.2547-.6735.3666a33.9991,33.9991,0,0,0-.05-5.4766.1522.1522,0,0,0-.0071-.0907c-.2111-2.6541-.5937-5.3034-.7577-7.9574-.0417-.4583-.0478-.9236-.1022-1.3782a.1475.1475,0,0,0-.239-.0475c-.0633.062-.0377.1532-.035.2319q.0463.7257.1,1.4508c.1739,2.4856.51,4.97.7135,7.4577a11.5953,11.5953,0,0,1-2.56-2.4927.1484.1484,0,0,0-.2464.1435,12.3319,12.3319,0,0,0,1.85,1.9933,7.2817,7.2817,0,0,0,.9847.7276l.0017.0012a33.9838,33.9838,0,0,1-.0222,6.4009c-.1419,1.7161-.3684,3.4229-.59,5.13a23.6962,23.6962,0,0,1-3.0468-2.982.1476.1476,0,0,0-.199.174,17.3627,17.3627,0,0,0,3.2051,3.1234c-.1367,1.0594-.2693,2.1193-.3762,3.1821a58.614,58.614,0,0,0-.19,8.9893c.0871,1.2013.2272,2.3978.3762,3.5928a2.5627,2.5627,0,0,0,.1.6372.149.149,0,0,0,.2517-.1043c-.2081-1.8462-.4517-3.6913-.5159-5.55-.0595-2.2181.0492-4.4376.1918-6.6508.11-1.3171.2687-2.6291.4365-3.94a.1642.1642,0,0,0,.019-.1469c.26-2.0223.5331-4.0432.68-6.0773a13.9184,13.9184,0,0,0,2.5877-1.6648,6.1315,6.1315,0,0,0,.7063-.5982A.1285.1285,0,0,0,557.8887,244.27Z"/></svg>