<svg width="152" height="21" viewBox="0 0 152 21" fill="none" xmlns="http://www.w3.org/2000/svg">
<path d="M0.469813 0.428624H2.40181V9.36063H2.54181L10.6058 0.428624H13.0698L5.14581 8.91263L13.7978 20.0286H11.5018L3.96981 10.3406L2.40181 12.0206V20.0286H0.469813V0.428624ZM19.545 0.428624H21.505L27.777 18.1526H27.945L34.217 0.428624H36.177L29.261 20.0286H26.461L19.545 0.428624ZM52.0716 14.0366H43.6436L41.4036 20.0286H39.4436L46.8916 0.428624H48.7676L56.2996 20.0286H54.3396L52.0716 14.0366ZM51.4836 12.4406L47.8716 2.92063H47.7596L44.2316 12.4406H51.4836ZM63.2616 0.428624H66.0896L72.4176 16.3886H72.5016L78.8296 0.428624H81.6576V20.0286H79.7536V3.53662H79.6136L73.2016 20.0286H71.7176L65.3056 3.53662H65.1656V20.0286H63.2616V0.428624ZM89.9523 0.428624H92.7803L99.1083 16.3886H99.1923L105.52 0.428624H108.348V20.0286H106.444V3.53662H106.304L99.8923 20.0286H98.4083L91.9963 3.53662H91.8563V20.0286H89.9523V0.428624ZM118.603 2.19262V9.19262H127.339V10.8166H118.603V18.2646H128.459V20.0286H116.671V0.428624H128.459V2.19262H118.603ZM136.252 0.428624H138.408L149.748 16.8646H149.832V0.428624H151.764V20.0286H149.608L138.296 3.73263H138.184V20.0286H136.252V0.428624Z" fill="#F0EDE9"/>
</svg>
